<?xml version="1.0" encoding="UTF-8"?>
<svg width="959px" height="720px" viewBox="0 0 959 720" version="1.1" xmlns="http://www.w3.org/2000/svg" xmlns:xlink="http://www.w3.org/1999/xlink">
    <!-- Generator: Sketch 54.1 (76490) - https://sketchapp.com -->
    <title>Group 2</title>
    <desc>Created with Sketch.</desc>
    <defs>
        <linearGradient x1="32.3412245%" y1="0%" x2="50%" y2="100%" id="linearGradient-1">
            <stop stop-color="#1C670D" offset="0%"></stop>
            <stop stop-color="#0D4F02" offset="100%"></stop>
        </linearGradient>
        <linearGradient x1="36.253151%" y1="3.61890304%" x2="56.6388208%" y2="122.406028%" id="linearGradient-2">
            <stop stop-color="#559C12" offset="0%"></stop>
            <stop stop-color="#096538" offset="100%"></stop>
        </linearGradient>
        <linearGradient x1="50%" y1="0%" x2="50%" y2="100%" id="linearGradient-3">
            <stop stop-color="#94C839" offset="0%"></stop>
            <stop stop-color="#429321" offset="100%"></stop>
        </linearGradient>
        <polygon id="path-4" points="0.228372561 6.64361007 40.7900261 10.816517 43.8475317 0.516266325"></polygon>
        <polygon id="path-6" points="29.5494297 25.5945582 34.686458 11.9052363 0.223749634 0.685349981"></polygon>
        <polygon id="path-8" points="0.349530957 2.57359701 53.704169 20.8064866 25.5675914 3.9606 11.2035968 0.84200597"></polygon>
        <polygon id="path-10" points="0.0860401955 6.11614763 15.6297393 13.7678066 64.7358365 15.1897268 7.68984248 0.105065059"></polygon>
        <polygon id="path-12" points="0 0.317117194 9.52996147 0.317117194 9.52996147 2.77247654 0 2.77247654"></polygon>
    </defs>
    <g id="Page-1" stroke="none" stroke-width="1" fill="none" fill-rule="evenodd">
        <g id="login" transform="translate(0.000000, -142.000000)">
            <g id="Group-2" transform="translate(-400.000000, -41.000000)">
                <path d="M1062.78741,1110.78318 C882.35861,1382.80187 423.814753,1052.23172 255.635529,827.38211 C142.226529,675.758334 174.762315,462.056529 328.30624,350.065769 C367.074884,321.788976 411.40388,301.831695 458.44624,291.475665 C879.677796,198.744603 1130.43014,206.040235 1210.70327,313.36254 C1339.89528,486.087627 1243.2162,838.764485 1062.78741,1110.78318 Z" id="Rectangle-Copy-9" fill="#F3F8FA" transform="translate(728.999887, 720.139664) rotate(37.000000) translate(-728.999887, -720.139664) "></path>
                <g id="Group-2-Copy-2" transform="translate(486.000000, 369.000000)">
                    <path d="M143.704884,146.739006 C153.811688,138.419775 165.056584,134.144913 177.12845,132.3023 C183.354963,103.184993 191.321613,36.9969906 146.643723,0 C32.3643815,63.3416674 95.2773481,175 95.2773481,175 L129.840354,162.501053 C133.817618,156.402339 138.58818,150.952224 143.704884,146.739006" id="Fill-1" fill="url(#linearGradient-1)"></path>
                    <path d="M136.194758,153 C136.983354,152.113345 137.789355,151.257403 138.608745,150.428167 L142.125964,89.143508 L142.125964,89.1448433 L180,66.9250648 C179.896907,66.1145236 179.792475,65.3053177 179.674654,64.4934412 L142.281274,86.4328018 L147.186904,0.933390936 C146.825408,0.623595947 146.477301,0.305789019 146.109111,0 L146.107772,0 C145.712805,0.220328332 145.327209,0.441991988 144.936259,0.663655644 L137.991525,121.688006 L83.7832406,68.842589 C83.5114494,69.6397769 83.2517081,70.4369649 83,71.2354882 L137.820149,124.677794 L136.194758,153 Z" id="Fill-3" fill="#06470D"></path>
                    <path d="M143.197567,147.099627 L146,124.511536 C146,124.511536 109.22275,28.4056779 37.4124045,19 C-14.628194,88.8213882 54.4400004,158.682954 54.4400004,158.682954 L119.607293,186 C122.766059,171.176984 132.171358,156.256201 143.197567,147.099627" id="Fill-6" fill="url(#linearGradient-2)"></path>
                    <path d="M126,169.540515 L87.5669842,102.872439 L108.587644,61.7723107 C108.056616,61.1574395 107.518866,60.543905 106.977082,59.9330439 L86.2145421,100.526572 L39.3630449,19.2539685 C38.7957183,19.1697579 38.2337692,19.0748539 37.6637539,19 C37.4580644,19.2740187 37.2711961,19.5480374 37.0681954,19.822056 L62.16097,63.3509256 L20.4691872,54.8857535 C20.3777696,55.2773997 20.2997958,55.6677092 20.2137558,56.0580187 L20,57.0966164 L63.6680153,65.9627915 L105.484825,138.501551 L31.8372291,125.966199 C32.2835618,126.818998 32.7339277,127.662441 33.1869824,128.489844 L106.950195,141.045246 L124.795439,172 C125.179931,171.172597 125.583243,170.354551 126,169.540515" id="Fill-8" fill="#00666A"></path>
                    <path d="M118.820573,193.596124 C119.087302,186.612499 121.024101,179.351565 124.076067,172.446979 L121.757269,166.214901 C121.757269,166.214901 50.2310858,118.568706 3,151.74528 C9.8223573,269.36973 160,269 160,269 L157.119598,261.255436 C148.471691,256.640322 140.689646,250.137633 134.418171,243.218311 C122.300109,229.845868 118.1504,211.110783 118.820573,193.596124 Z" id="Fill-10" fill="url(#linearGradient-3)"></path>
                    <path d="M121.20595,217.080753 L68.5487524,187.61534 L55.212476,141.27633 C54.3996161,141.175725 53.5854127,141.083167 52.7685221,141 L65.7285988,186.037842 L4.05873321,151.530069 C3.70537428,151.767498 3.35067179,151.994197 3.00134357,152.238333 L3,152.241016 C3.0268714,152.694413 3.06046065,153.141102 3.09136276,153.591816 L104.885605,210.55211 L46.0358925,234.417136 C46.7439539,234.952359 47.4560461,235.479533 48.1721689,236 L107.423608,211.971322 L122,220.128436 C121.71382,219.119696 121.447793,218.104249 121.20595,217.080753" id="Fill-12" fill="#0C8A2D"></path>
                    <path d="M102.867324,169.059928 L98.4809502,153.73468 C97.9659346,153.883259 97.4186463,153.967004 96.8310175,153.945392 C94.6176602,153.860297 92.5858359,151.749125 92.4742268,149.519089 C91.6324518,148.976101 91.1039892,147.963062 90.8229494,147 L81,151.641067 C81,151.641067 85.5262214,168.638504 91.9390408,174.379056 C98.3532048,180.120958 119.112506,196 119.112506,196 L123,194.452077 L102.867324,169.059928 Z" id="Fill-14" fill="#F39F85"></path>
                    <path d="M124.91937,196.452712 C124.91937,196.452712 124.965515,196.605377 125.103951,196.851656 C124.727797,196.883341 124.360033,196.93519 123.995066,197 C122.668038,196.612578 121.331222,196.268363 120,195.896783 C120.318822,195.142103 120.763495,194.082093 120.781674,194 L129.961794,194.653865 C129.961794,194.653865 130.371509,195.803169 128.507518,196.298608 C126.642129,196.792607 124.91937,196.452712 124.91937,196.452712" id="Fill-16" fill="#F39F85"></path>
                    <polygon id="Fill-18" fill="#F39F85" points="449 132.645236 446.246127 147 439 134.080438 442.674037 128"></polygon>
                    <path d="M464.678442,305 C464.678442,305 461.561504,306.601967 462.052455,309.219339 C462.543406,311.839317 463.324647,316 463.324647,316 L465.192135,316 L465.259022,312.917289 C465.265711,312.543192 465.703152,312.333333 466.01217,312.55362 L469.6321,315.118853 C470.442771,315.691077 471.415309,316 472.41594,316 L487,316 C487,316 487,311.452186 478.429089,310.212584 C469.859516,308.972983 464.678442,305 464.678442,305" id="Fill-20" fill="#ED2323"></path>
                    <path d="M468.56638,299 L470.411655,304.552795 C470.799575,305.722529 471.556815,306.714738 472.562483,307.382174 C473.673102,308.118419 475.41077,309.030811 478,309.823478 C474.834204,312.622582 469.797892,309.813844 466.917722,307.746856 C465.512178,306.740885 464.518466,305.236745 464.10132,303.522053 L463,299 L468.56638,299 Z" id="Fill-22" fill="#F6B58E"></path>
                    <path d="M397.681859,301 C397.681859,301 394.120177,301.305565 393.528374,303.899619 C392.939285,306.494972 392,310.616852 392,310.616852 L393.748264,311.317701 L395.047246,308.503901 C395.204699,308.163228 395.697416,308.132021 395.901018,308.450589 L398.260089,311.178571 C398.785382,312.009449 401.824484,315.62422 402.761055,316 L418,316 C418,316 417.48285,312.329317 408.463273,310.948422 C399.783033,309.620839 397.681859,301 397.681859,301" id="Fill-24" fill="#ED2323"></path>
                    <path d="M403.128146,297.194031 L402.748917,302.980022 C402.668642,304.197268 403.011886,305.399569 403.719135,306.403525 C404.501123,307.513447 405.818738,309.029569 408,310.771208 C403.871381,312.072683 400.119223,307.529749 398.151104,304.512447 C397.191958,303.041156 396.818265,301.280498 397.082618,299.552444 L397.777411,295 L403.128146,297.194031 Z" id="Fill-26" fill="#F6B58E"></path>
                    <path d="M452.960585,172.928844 C452.735918,179.325245 465,199.614224 465,199.614224 C465,199.614224 454.635373,208 451.180952,208 C448.106421,199.672385 446,195.256105 446,195.256105 C446,195.256105 453.185252,166.533764 452.960585,172.928844" id="Fill-28" fill="#F6A506"></path>
                    <path d="M452.355757,132.993934 C453.6477,132.955161 454.843112,132.741239 455.468587,132.175683 C459.193669,126.175173 454.951545,110 454.951545,110 L441.437048,112.449406 L441.007282,123.288563 C440.892236,126.181858 442.145832,128.957495 444.384584,130.765135 C446.779374,132.255904 449.544424,133.079503 452.355757,132.993934" id="Fill-30" fill="#F6B58E"></path>
                    <path d="M451.677597,203.497891 C460.295079,221.954958 460.636765,257.514311 460.636765,257.514311 L469,299 L461.49098,299 C461.49098,299 436.234468,246.168847 434.35654,231.099402 C432.479958,216.028622 438.622234,204.175949 438.622234,204.175949 L445.994041,193 C445.994041,193 448.442342,195.709564 451.677597,203.497891" id="Fill-32" fill="#27616B"></path>
                    <path d="M443,214.421482 C443,214.421482 437.923248,234.884959 424.390576,258.757223 C415.254556,274.444903 404.935694,299 404.935694,299 L398,296.272701 C398,296.272701 401.472514,272.603405 411.064602,252.80932 C413.030227,248.751303 414.009038,244.267189 413.970366,239.750815 C413.790339,218.150179 419.265817,200 419.265817,200 L443,214.421482 Z" id="Fill-34" fill="#3C828E"></path>
                    <path d="M438.880969,134 C438.880969,134 450.829872,150.874667 454.310781,159.052616 C455.037385,160.761898 455.17999,162.653414 454.783413,164.46379 C448.967864,190.978274 446.572108,211.624002 445.772164,215 C429.232754,214.493201 417,197.449601 417,197.449601 C417,197.449601 419.489468,192.364322 422.265503,186.397133 C425.917537,178.543748 428.063396,170.095773 428.648754,161.486846 C429.4324,149.946202 431.472324,141.256134 431.472324,141.256134 L438.880969,134 Z" id="Fill-36" fill="#ED2323"></path>
                    <path d="M441,104.57667 C441,104.57667 439.883504,99.2597027 436.82398,97.7840332 C432.947408,95.9143158 424.180747,96.4557967 421.687601,110.04241 C419.195809,123.629024 426.083126,122.150674 426.329731,127.624456 C426.57498,133.098238 413.007658,135.002803 412.147251,145.894075 C411.2882,156.785347 414.468316,158.9955 414.468316,158.9955 C414.468316,158.9955 418.096928,166.083003 424.661762,163.389001 C426.700993,160.952337 426.530266,157.991616 426.885269,155.688982 C427.240271,153.379647 428.546463,151.341051 430.494911,150.019516 C433.189948,148.192688 437.665417,145.057728 438.447235,140.622678 C439.210084,136.298873 437.222341,131.472455 435.394486,128.149853 C433.489397,124.68652 432.515173,120.806354 432.467749,116.863193 C432.42439,113.336866 432.568016,109.495568 433.291571,107.824215 C434.784749,104.363562 436.82398,106.455769 436.82398,106.455769 L441,104.57667 Z" id="Fill-38" fill="#8B572A"></path>
                    <path d="M455,109.59812 C455,109.59812 451.595111,100.851586 441.059377,105.224193 C439.842496,105.73411 439.842496,105.73411 437.565963,107.411817 C430.190685,118.347297 441.059377,125 441.059377,125 L445.324407,116.833397 C445.324407,116.833397 449.339719,117.249522 451.813119,115.112096 C454.285198,112.975992 455,109.59812 455,109.59812" id="Fill-40" fill="#8B572A"></path>
                    <path d="M442.513022,117.446259 C443.350743,116.750739 444.920914,116.882977 446.016624,117.739979 C447.115299,118.598252 447.324358,119.857053 446.486637,120.553844 C445.647433,121.249363 444.080228,121.117125 442.981553,120.258852 C441.885843,119.40185 441.675301,118.141778 442.513022,117.446259" id="Fill-42" fill="#F6B58E"></path>
                    <path d="M443,105.340596 L442.24192,104.535975 C441.676806,103.936602 440.707842,103.824534 439.996626,104.277841 L437.540447,105.84553 C436.987738,106.198103 436.834744,106.885619 437.194487,107.408182 L437.602472,108 L443,105.340596 Z" id="Fill-44" fill="#FEFEFE"></path>
                    <path d="M549.44674,305.705359 C549.44674,305.705359 549.469742,310.805815 560.116605,313.86765 C562.300369,314.495118 561.59139,315.116077 562,316 L549.748462,316 L544.950677,310.811022 L543.458303,312.043827 L540,308.773704 C540,308.773704 541.615498,304.042959 544.248462,304 C546.422755,304.713387 549.44674,305.705359 549.44674,305.705359" id="Fill-46" fill="#212B53"></path>
                    <path d="M551,300.993464 L549.060606,305.807572 C547.295125,306.348148 545.400527,305.728117 544.213439,304.219895 L544,303.948897 L545.566535,299 L551,300.993464 Z" id="Fill-48" fill="#F6B58E"></path>
                    <path d="M602.771066,308 C602.771066,308 606.524896,311.639185 615.08533,313.918018 C616.968891,314.419639 619,313.749884 619,317 L608.614493,317 L599.974304,315.438166 L599.974304,317 L595.309931,317 C595.309931,317 594.009915,309.022696 596.734897,308 L602.771066,308 Z" id="Fill-50" fill="#212B53"></path>
                    <path d="M601.088307,303 L602,308.122106 C600.308743,309.225023 598.087646,309.293335 596.319753,308.300958 L596,308.122106 L596.462453,303 L601.088307,303 Z" id="Fill-52" fill="#F6B58E"></path>
                    <path d="M582.284896,189 C582.284896,189 572.373223,208.697934 568.598372,235.803295 C567.785058,241.644024 565.663721,247.269715 562.255869,252.099369 C552.58214,265.805647 544,300.123434 544,300.123434 L550.662451,302 L598,226.576734 L597.678707,190.180701 L582.284896,189 Z" id="Fill-54" fill="#212B53"></path>
                    <path d="M587.263352,190 C587.263352,190 583.142444,214.643677 589.785913,238.883424 C590.992828,243.283985 591.14777,247.87518 590.39073,252.370391 C587.541976,269.250096 595.544583,304 595.544583,304 L601.916225,304 L613,192.027644 L587.263352,190 Z" id="Fill-56" fill="#053C5D"></path>
                    <path d="M589.517304,145 C589.517304,145 579.55766,142.972662 581.17832,136.52524 C582.801628,130.077818 601.423329,106.655163 601.423329,106.655163 L616,105 C616,105 615.070504,108.604006 605.882792,110.242929 C596.696404,111.881851 589.517304,145 589.517304,145" id="Fill-58" fill="#F6B58E"></path>
                    <path d="M603.659072,111 C602.755015,109.567968 601.883634,108.114401 601,106.660834 C601.001362,106.658143 601.012254,106.64603 601.012254,106.64603 L616,105 C616,105 615.044204,108.584118 605.597894,110.213997 C604.940274,110.327052 604.294908,110.605653 603.659072,111" id="Fill-60" fill="#F39F85"></path>
                    <polygon id="Fill-62" fill="#F39F85" points="604 122.124957 603.09401 133 593 129.66871 595.599002 121"></polygon>
                    <path d="M603.857685,104 C603.857685,104 611.810555,115.828084 609.617495,122.744742 C607.148621,126.214366 597,121.390645 597,121.390645 L597,105.355426 L603.857685,104 Z" id="Fill-64" fill="#F6B58E"></path>
                    <path d="M605,104.174361 C605,104.174361 602.431562,104.562685 600.540981,106.293964 C598.651723,108.023895 600.270898,114.981372 600.270898,114.981372 L600.352982,117.434018 C600.454925,120.47724 598.062571,123 595.073121,123 L594.873207,123 C594.873207,123 581.917161,109.867087 587.316175,103.819745 C596.762465,95.0231204 605,104.174361 605,104.174361" id="Fill-66" fill="#5E330D"></path>
                    <path d="M602.965909,115.148867 C603.168155,114.401453 602.449688,113.505978 601.363501,113.148262 C600.278728,112.789362 599.234971,113.104436 599.034139,113.85185 C598.831894,114.598079 599.548947,115.494738 600.636548,115.852454 C601.72132,116.210171 602.763664,115.895096 602.965909,115.148867" id="Fill-68" fill="#F6B58E"></path>
                    <path d="M608,101.5 C608,103.433156 605.932584,105 603.382541,105 C600.832498,105 592,103.433156 592,101.5 C592,99.5668438 600.832498,98 603.382541,98 C605.932584,98 608,99.5668438 608,101.5" id="Fill-70" fill="#5E330D"></path>
                    <path d="M583.03006,189.542487 C583.03006,189.542487 572.588033,123.963722 599.068459,129.309984 C624.920843,134.527679 613.476083,192 613.476083,192 L583.03006,189.542487 Z" id="Fill-72" fill="#ED6223"></path>
                    <path d="M595.899663,135 C595.899663,135 578.6515,155.979306 581.270736,161.842589 C583.888615,167.705871 606.224687,191.375862 607.494291,192.702463 C609.444814,195.457402 606.125669,206.054148 612.76396,202.143954 C619.399538,198.232422 614.019999,190.813629 612.504885,189.112206 L595.838624,162.121028 L605.758081,148.932658 L595.899663,135 Z" id="Fill-74" fill="#F6B58E"></path>
                    <path d="M591,141.229808 L602.134528,154 L606.644868,149.352629 C609.556219,146.352937 610.787639,141.944789 609.477929,137.95192 C609.038705,136.61066 608.326127,135.297623 607.208826,134.179458 C607.163709,134.135108 607.118593,134.090758 607.074803,134.047752 C603.913982,130.971455 598.781298,131.445869 596.031835,134.902502 L591,141.229808 Z" id="Fill-76" fill="#EF7841"></path>
                    <polygon id="Fill-78" fill="#F6B58E" points="363.818485 143 387 176.253391 379.029978 179 357 162.827925 357.996753 151.583827"></polygon>
                    <path d="M359.649611,127.02697 C370.136666,134.552994 361.973668,199 361.973668,199 L320,190.874723 C320,190.874723 323.275111,125.481459 359.649611,127.02697" id="Fill-80" fill="#5FB8C8"></path>
                    <path d="M354,128.034394 L357.970814,122 L365,125.798134 L362.609713,133.904237 C362.543424,133.942003 362.471937,133.971676 362.399149,134 C360.111544,131.394178 357.189649,129.317073 354,128.034394" id="Fill-82" fill="#F39F85"></path>
                    <path d="M358.071548,107 L356,118.081324 C357.134059,118.291939 357.510704,119.611621 357.048833,120.586052 C357.106567,120.861985 357.103817,121.153915 357.04196,121.436513 C358.665382,123.233413 361.780264,125.804792 366.554308,125.995412 C374.021227,126.294007 372.946277,111.917479 372.946277,111.917479 L358.071548,107 Z" id="Fill-84" fill="#F6B58E"></path>
                    <path d="M353.223881,114.689354 C353.363051,113.8602 352.657744,111.868605 352.165922,111.188482 C348.994745,106.804262 353.140109,105.124276 354.593959,104.608087 C356.197788,104.037705 356.518013,101.435083 358.656902,100.441995 C361.921309,98.9245887 364.056144,101.794112 365.90048,101.880821 C367.743464,101.968885 369.391881,99.8702578 371.668589,101.722306 C373.946647,103.574354 373.189997,105.530725 373.814233,106.578006 C374.43847,107.625287 376.503045,105.621498 378.377106,108.904243 C381.232111,113.89949 373.346732,113.895426 373.346732,113.895426 C373.346732,113.895426 368.858173,114.632451 363.939944,111.227772 C363.265714,110.760356 362.345573,110.714292 361.722688,111.249449 C360.016171,112.718081 357.829991,122 357.829991,122 L356.37479,120.068017 C356.37479,120.068017 352.590186,118.484224 353.223881,114.689354" id="Fill-86" fill="#73110B"></path>
                    <path d="M357.019045,116.736846 C357.14868,117.555245 357.918392,118.110877 358.735559,117.98123 C359.553883,117.850425 360.111779,117.0818 359.980986,116.263401 C359.850193,115.446159 359.080482,114.888212 358.263315,115.019017 C357.44499,115.149822 356.888252,115.918446 357.019045,116.736846" id="Fill-88" fill="#F6B58E"></path>
                    <path d="M282,266.448022 C282,266.448022 278.76441,270.046008 276.739406,278.247968 C276.29258,280.052319 276.888781,282 274,282 L274,272.04727 L275.388537,263.767617 L274,263.767617 L274,259.296256 C274,259.296256 281.090761,258.05183 282,260.663919 L282,266.448022 Z" id="Fill-90" fill="#273466"></path>
                    <path d="M287,266.131455 L281.878421,267 C280.775995,265.387365 280.705461,263.270286 281.699473,261.586155 L281.878421,261.282958 L287,260 L287,266.131455 Z" id="Fill-92" fill="#F6B58E"></path>
                    <path d="M350.877464,305.846538 C350.877464,305.846538 350.901393,311.372897 362.031154,314.689507 C364.313739,315.370858 363.571932,316.042929 364,317 L351.191203,317 L346.176695,311.378199 L344.617305,312.715713 L341,309.172428 C341,309.172428 342.689671,304.046395 345.442865,304 C347.714814,304.77149 350.877464,305.846538 350.877464,305.846538" id="Fill-94" fill="#273466"></path>
                    <path d="M353,300.994009 L350.78627,305.806308 C348.76787,306.349158 346.600849,305.728948 345.244869,304.22177 L345,303.949678 L346.789101,299 L353,300.994009 Z" id="Fill-96" fill="#F6B58E"></path>
                    <path d="M320.250941,206 C320.250941,206 320.737206,222.577167 327.065327,237.040926 C329.017066,241.501223 326.444137,246.609631 321.697712,247.607965 C298.880673,252.407748 286,260.115312 286,260.115312 L286,268 L339.229962,260.684255 C347.775664,259.508798 354.413713,252.617076 355.299409,243.99974 L357,227.458803 L320.250941,206 Z" id="Fill-98" fill="#212B53"></path>
                    <path d="M358.541494,203 C358.541494,203 377,237.6279 377,248.368434 C377,259.108968 352.153197,301 352.153197,301 L345.047792,301 C345.047792,301 346.307758,274.455652 351.115736,252.447746 C352.05803,248.131156 350.720321,243.612142 347.498024,240.587847 C332.395854,226.416831 319,203 319,203 L358.541494,203 Z" id="Fill-100" fill="#273466"></path>
                    <polygon id="Fill-102" fill="#00168B" points="473.254448 220.77873 445.98903 220.77873 445.98903 251.004165 412.797859 251.004165 412.797859 220.77873 267 220.77873 267 166 510 166 510 201.739044 510 220.77873 510 266 473.254448 266"></polygon>
                    <polygon id="Fill-104" fill="#004388" points="473.254448 220.283348 445.98903 220.283348 445.98903 250.171501 412.797859 250.171501 412.797859 220.283348 267 220.283348 267 192 510 192 510 265 473.254448 265"></polygon>
                    <path d="M160.186697,225.143885 C143.445363,225.143885 129.874065,211.649033 129.874065,195.000667 C129.874065,178.352301 143.445363,164.857449 160.186697,164.857449 C176.929373,164.857449 190.500671,178.352301 190.500671,195.000667 C190.500671,211.649033 176.929373,225.143885 160.186697,225.143885 M141.520794,274 L239.479206,274 C255.715911,274 269,260.792074 269,244.646829 L269,145.354506 C269,129.210595 255.715911,116 239.479206,116 L141.520794,116 C125.284089,116 112,129.210595 112,145.354506 L112,244.646829 C112,260.792074 125.284089,274 141.520794,274" id="Fill-106" fill="#FED147"></path>
                    <path d="M112,244.523494 L112,194 L129.906275,194 C129.902249,194.225144 129.872723,194.443588 129.872723,194.668733 C129.872723,211.385711 143.445363,224.938605 160.186697,224.938605 C176.928031,224.938605 190.500671,211.385711 190.500671,194.668733 C190.500671,194.443588 190.471145,194.225144 190.467119,194 L269,194 L269,244.523494 C269,260.736578 255.715911,274 239.479206,274 L141.520794,274 C125.284089,274 112,260.736578 112,244.523494" id="Fill-108" fill="#F6A506"></path>
                    <polygon id="Fill-110" fill="#FEFEFE" points="146.515502 118.694974 143.245765 142 138.737369 118.943253 115 115.73156 138.484498 111.305026 141.754235 88 146.262631 111.058074 170 114.26844"></polygon>
                    <path d="M329.424107,149 L344,157.968012 L333.496862,169.944408 L331.998131,204 L326.334477,202.906405 C326.334477,202.906405 317.463647,176.608296 319.233539,167.549926 C321.002094,158.492885 329.424107,149 329.424107,149" id="Fill-112" fill="#F6B58E"></path>
                    <path d="M332,204.1092 L331.949686,210.966561 C331.940417,212.067674 331.626614,213.141832 331.026812,214.059651 C329.896061,215.791512 327.890103,218.332024 326.037736,217.964088 C323.259848,217.415553 320,210.904564 320,210.904564 L326.385965,203 L332,204.1092 Z" id="Fill-114" fill="#F6B58E"></path>
                    <path d="M444.100852,161.02122 C444.100852,161.02122 450.340192,155.460228 444.793666,149.782628 C440.339292,145.224196 435.222926,150.846843 435.222926,150.846843 C435.222926,150.846843 413.596967,174.451237 416.220813,180.115433 C418.843319,185.780971 445.131362,207.460664 445.131362,207.460664 L449.175676,208.664272 C451.32916,209.303605 453.651491,209.022138 455.589224,207.885545 L458,206.470166 L447.854373,203.974489 C447.854373,203.974489 425.251507,180.337927 427.437152,177.30344 C429.624137,174.270293 444.100852,161.02122 444.100852,161.02122" id="Fill-116" fill="#F6B58E"></path>
                    <polygon id="Fill-118" fill="#F39F85" points="87 125.365071 83.9483297 132 75 127.900435 82.7248873 117"></polygon>
                    <path d="M97,109.448662 C97,109.448662 95.1484596,126.101025 91.3944908,127.710503 C87.6418267,129.3213 83.2145705,123.684831 83.2145705,123.684831 L79,113.819693 L92.3757158,108 L97,109.448662 Z" id="Fill-120" fill="#F6B58E"></path>
                    <path d="M103,105.705493 C103,105.705493 100.072492,111.672189 91.6146526,108.999904 C89.2269497,109.050273 87.9429081,111.496577 87.27216,113.666532 C86.4931836,116.183626 86.2312979,114.255987 84.2631467,115.97262 L80.8198841,121 C80.8198841,121 72.9152115,105.862046 83.5750286,101.294794 C94.2361819,96.7289041 103,105.705493 103,105.705493" id="Fill-122" fill="#4F2153"></path>
                    <path d="M85.7975208,113.047332 C86.5295283,112.809278 87.4363975,113.492581 87.8247112,114.571171 C88.2130249,115.649761 87.934452,116.715126 87.2036505,116.95318 C86.471643,117.189764 85.5635679,116.506461 85.1752542,115.429341 C84.7869405,114.350751 85.0655134,113.283917 85.7975208,113.047332" id="Fill-124" fill="#F6B58E"></path>
                    <path d="M71.6384448,127.236009 C50.4304617,139.859601 58.5115333,192 58.5115333,192 L90.7625374,192 C90.7625374,192 91.1329476,178.363363 91.5606515,163.958577 C91.8830949,153.051943 92.9077188,141.702353 89.9964012,135.500962 C85.935213,126.953641 76.9041324,124.101857 71.6384448,127.236009" id="Fill-126" fill="#14006A"></path>
                    <path d="M83,161.226375 C83,161.226375 87.8727661,177.932194 94.4242596,183.482114 C100.975753,189.033369 119.811803,204 119.811803,204 L126,202.718633 L105.294796,178.017619 L97.7979208,154 L83,161.226375 Z" id="Fill-128" fill="#F6B58E"></path>
                    <polygon id="Fill-130" fill="#14006A" points="80.9040528 163 99 155.781333 89.9384307 136 78 142.094667"></polygon>
                    <path d="M51.4476663,306 C51.4476663,306 55.0448321,309.233876 63.2469615,311.259935 C65.0529349,311.70684 67,311.111401 67,314 L57.0469902,314 L48.7682682,312.611075 L48.7682682,314 L44.296334,314 C44.296334,314 43.0520398,306.909446 45.6629076,306 L51.4476663,306 Z" id="Fill-132" fill="#14006A"></path>
                    <path d="M51.08829,300 L52,305.121785 C50.3076208,306.223709 48.0855019,306.294462 46.3178439,305.301289 L46,305.121785 L46.4614312,300 L51.08829,300 Z" id="Fill-134" fill="#F6B58E"></path>
                    <path d="M58.7702063,192 C58.7702063,192 55.5979375,202.846341 54.9573448,229.337723 C54.8265571,234.69565 53.3692086,239.912439 51.031045,244.740432 C41.7477884,263.916592 45.9476746,301 45.9476746,301 L52.3589404,301 L78,209.884612 L68.9756496,192 L58.7702063,192 Z" id="Fill-136" fill="#0D728B"></path>
                    <path d="M86.4479987,309 C86.4479987,309 90.0450877,312.235179 98.2470417,314.261238 C100.052977,314.708143 102,314.111401 102,317 L92.0458592,317 L83.7673142,315.612378 L83.7673142,317 L79.2968193,317 C79.2968193,317 78.051208,309.909446 80.6633637,309 L86.4479987,309 Z" id="Fill-138" fill="#14006A"></path>
                    <path d="M86.087108,303 L87,308.120757 C85.3066202,309.224052 83.0850174,309.29481 81.31777,308.300272 L81,308.120757 L81.461324,303 L86.087108,303 Z" id="Fill-140" fill="#F6B58E"></path>
                    <path d="M119,204.575256 L123.964893,211.416658 C126.202303,214.047183 131.963053,212.972797 135.56284,211.275191 C136.103422,211.020296 136.151201,210.314234 135.658397,209.985419 C133.072885,208.261049 126.375672,203.852626 124.209247,203 L119,204.575256 Z" id="Fill-142" fill="#F6B58E"></path>
                    <path d="M91,192 L87.7658148,305 L80.8828054,305 C80.8828054,305 71.1911257,273.575042 73.3078244,251.891486 C73.8842408,245.994705 73.079433,240.043038 70.6962777,234.602739 C60.4757632,211.276652 62.0935355,192 62.0935355,192 L91,192 Z" id="Fill-144" fill="#107C96"></path>
                    <polygon id="Fill-146" fill="#AFD8C7" points="540.152782 35.6788036 545 45 534.820178 42.7282185 500 32"></polygon>
                    <polygon id="Fill-148" fill="#63C0C4" points="545 45 528 44.0016474 532.165346 42"></polygon>
                    <g id="Group-153" transform="translate(499.000000, 24.000000)">
                        <mask id="mask-5" fill="white">
                            <use xlink:href="#path-4"></use>
                        </mask>
                        <g id="Clip-152"></g>
                        <polygon id="Fill-151" mask="url(#mask-5)" points="0.228372561 6.64361007 40.7900261 10.816517 43.8475317 0.516266325"></polygon>
                    </g>
                    <g id="Group-156" transform="translate(501.000000, 28.000000)">
                        <mask id="mask-7" fill="white">
                            <use xlink:href="#path-6"></use>
                        </mask>
                        <g id="Clip-155"></g>
                        <polygon id="Fill-154" mask="url(#mask-7)" points="29.5494297 25.5945582 34.686458 11.9052363 0.223749634 0.685349981"></polygon>
                    </g>
                    <g id="Group-163" transform="translate(505.000000, 51.000000)" fill="#63C0C4">
                        <path d="M36.7291844,3.9428281 C36.8203647,3.89625665 36.9048405,3.83238722 36.9772484,3.75121983 C37.2735842,3.41324413 37.2387212,2.89962751 36.8954543,2.60423143 C35.8173819,1.67280233 34.6561744,0.841169204 33.4453542,0.135944316 C33.0551564,-0.0942517328 32.552324,0.0361483409 32.3230325,0.426017949 C32.093741,0.813226331 32.2251478,1.31220621 32.6153457,1.53974103 C33.7403492,2.19440262 34.8170808,2.96482755 35.8187227,3.83238722 C36.0801955,4.05459959 36.439553,4.08919553 36.7291844,3.9428281" id="Fill-157"></path>
                        <path d="M15.2174818,25.4665578 C12.9192029,24.4140429 10.0952967,24.1505816 7.66561093,24.7600023 C7.22580026,24.8704432 6.77928517,24.6069818 6.66933251,24.1705408 C6.55803895,23.7354303 6.82621619,23.2949974 7.26200419,23.1818953 C10.0872513,22.4726786 13.2356521,22.7680747 15.9053564,23.9895774 C16.3156676,24.1771938 16.4953463,24.6602063 16.3062814,25.0687045 C16.2271691,25.2416842 16.0917396,25.3720843 15.933515,25.4532517 C15.7176323,25.5610313 15.4548187,25.5756681 15.2174818,25.4665578 M1.50692077,34.7622202 C1.068451,34.8713305 0.621935904,34.6052079 0.513324125,34.1700974 C-0.0686204702,31.8561614 0.16201195,29.6127479 1.18510809,27.6793672 C1.55653356,26.9794648 2.0271846,26.3354481 2.58499325,25.7672764 C2.89876061,25.4426068 3.42036533,25.4372843 3.74485978,25.7499784 C4.07069512,26.0640031 4.07605866,26.5789503 3.76095042,26.9022892 C3.31309444,27.3586895 2.93496454,27.876298 2.63728781,28.436486 C1.79252953,30.031891 1.61419167,31.8282186 2.104956,33.7749054 C2.19881803,34.1501382 2.01377574,34.5293629 1.68123597,34.6970202 C1.62625964,34.7249631 1.56860154,34.7462529 1.50692077,34.7622202 M43.8521058,14.8389518 C43.4243632,14.9839886 42.9577348,14.7577844 42.8115782,14.3319883 C42.4146759,13.1863305 41.9359795,12.0619625 41.3862162,10.9894884 C40.7224775,9.69347135 39.9447636,8.45733188 39.0812329,7.31566593 C38.8076921,6.95773103 38.8800999,6.44677564 39.2421392,6.1766612 C39.6055194,5.90255492 40.1190788,5.97839986 40.3899378,6.33766537 C41.3138083,7.55384565 42.1397942,8.87115252 42.8477821,10.2523288 C43.4324085,11.3913335 43.9419452,12.586224 44.3629835,13.8050655 C44.4970721,14.1922739 44.3187342,14.6127476 43.9607176,14.793711 C43.9258546,14.8110089 43.8909915,14.8256457 43.8521058,14.8389518 M24.1813058,34.288522 C22.4180405,31.5754021 20.8076362,29.6034336 19.1127561,28.0865348 C18.7761937,27.7858163 18.7507168,27.270869 19.0537571,26.9368852 C19.3581383,26.6055625 19.8770612,26.5776197 20.2122828,26.8783382 C22.0171155,28.4937024 23.7160183,30.5694587 25.5597368,33.4076562 C25.805119,33.7855503 25.6951663,34.288522 25.3143546,34.5333548 C25.2902187,34.5479915 25.2660827,34.5612977 25.2419468,34.5746038 C24.8705213,34.7608896 24.4092565,34.6437957 24.1813058,34.288522 M9.34171863,44.3719073 C8.67797998,44.0339316 8.03033196,43.6613599 7.4162061,43.2648373 C5.63550927,42.1165183 4.03046853,40.5969582 2.78076263,38.8698225 C2.51660805,38.5052346 2.599743,37.9969404 2.96714581,37.733479 C3.33454861,37.4726789 3.84810802,37.5551769 4.11226259,37.9197649 C5.2453114,39.4845657 6.69749112,40.8604196 8.31057717,41.8996283 C8.87643113,42.2655469 9.47580725,42.6101757 10.0899331,42.9228697 C10.4935398,43.1264535 10.6531053,43.6174497 10.4452679,44.0179642 C10.3634739,44.1763072 10.2374306,44.297393 10.0885922,44.3719073 C9.86198246,44.48634 9.58575991,44.4943237 9.34171863,44.3719073 M44.545344,27.8430326 C44.0988289,27.7658571 43.8011522,27.3427221 43.8789236,26.9009586 C44.333484,24.3288837 44.3576199,21.6623353 43.9540132,18.974497 C43.885628,18.5314029 44.1940318,18.114921 44.6432287,18.049721 C45.0910847,17.9831903 45.5081003,18.2892313 45.5751446,18.7336561 C46.005569,21.5958046 45.9787513,24.437994 45.4946914,27.181718 C45.4491013,27.4438487 45.2801496,27.6554162 45.0575625,27.7671877 C44.9060424,27.8443632 44.7277045,27.8736367 44.545344,27.8430326 M22.6500138,46.824227 C19.7335864,47.0703904 16.8748171,46.8508393 14.1568408,46.1669042 C13.7170302,46.0551327 13.4528756,45.6133692 13.5641692,45.1769281 C13.6754627,44.7391565 14.1219778,44.4770257 14.5591067,44.5887972 C17.100086,45.2288221 19.7751539,45.4337365 22.5105617,45.2022098 C22.9624403,45.1649526 23.3580017,45.4962753 23.3982283,45.9446918 C23.4263869,46.2853288 23.2400037,46.5927004 22.9530541,46.7390678 C22.8605329,46.7843086 22.7586256,46.8149127 22.6500138,46.824227 M38.2217248,39.1825166 C37.8972304,38.8698225 37.8891851,38.3548753 38.2069751,38.0315364 C39.3655007,36.849952 40.3725062,35.5512737 41.1984921,34.171428 C41.7133924,33.3118521 42.1706346,32.3990515 42.5581507,31.4623 C42.7297841,31.0471487 43.2071396,30.8462262 43.626837,31.0192059 C44.0465343,31.1895243 44.2463264,31.6645532 44.0746929,32.081035 C43.6576773,33.0909703 43.1642312,34.0742933 42.6091044,35.0030612 C41.7174151,36.4920171 40.6299564,37.8931526 39.3815914,39.1665492 C39.3172288,39.2330799 39.244821,39.2849738 39.1643678,39.3248922 C38.8613275,39.4792433 38.4805159,39.4326718 38.2217248,39.1825166 M31.7425629,46.0311817 C31.3362744,46.229443 30.84551,46.0631164 30.645718,45.6599407 C30.5438107,45.4550263 30.4419033,45.2501119 30.3373142,45.0451975 C29.4711017,45.3818425 28.5861169,45.675908 27.6863822,45.923402 C27.2505942,46.0431572 26.7973747,45.7903407 26.676695,45.3565609 C26.5546743,44.9241117 26.8040791,44.4810175 27.2479125,44.3546093 C28.0403762,44.1363888 28.8207719,43.8809111 29.5864179,43.5881762 C28.7349552,41.9701508 27.7963349,40.2869254 26.7370348,38.4759611 C26.5090842,38.0887527 26.6418319,37.5897728 27.0347116,37.3635686 C27.4195459,37.1413563 27.9277418,37.2704257 28.1530106,37.6589647 C29.2538782,39.5364597 30.2233389,41.2769015 31.1043011,42.9561351 C32.295008,42.413245 33.4441474,41.7772119 34.5195381,41.065334 C34.897668,40.8098563 35.4058639,40.9176359 35.6566096,41.2902076 C35.9086962,41.6641098 35.805448,42.1697428 35.4299998,42.4185674 C34.3009737,43.1663719 33.0968579,43.833009 31.8484929,44.4065032 C31.9396732,44.5848054 32.0281716,44.7631075 32.118011,44.9414096 C32.3151213,45.3419242 32.1528741,45.8249367 31.75329,46.0258592 C31.7492673,46.0271899 31.7465856,46.0298511 31.7425629,46.0311817 M36.3538704,58.3433438 C35.9167415,58.4577765 35.4675447,58.1996375 35.3522284,57.7658577 C34.6951942,55.3122073 33.7994823,52.73481 32.6878876,50.1028575 C32.5122316,49.6877062 32.7254325,49.1980406 33.1276983,49.0370365 C33.5460548,48.8627261 34.026092,49.0583263 34.2004072,49.4734775 C35.3428422,52.1746219 36.2626902,54.8238724 36.935815,57.3480452 C37.0363815,57.7259393 36.8526801,58.1118171 36.5161176,58.2821356 C36.465164,58.3074172 36.4115285,58.3273764 36.3538704,58.3433438 M37.4922828,71.387343 C37.0404041,71.3554083 36.699819,70.9655386 36.7320003,70.5171221 L36.7547954,70.1512035 C36.8875431,67.6775939 36.7521136,65.1028578 36.3525295,62.5015094 C36.2841443,62.0584152 36.5898664,61.6392721 37.0390632,61.5754027 C37.4855783,61.5062108 37.9052757,61.8122518 37.9736609,62.2566766 C38.3906765,64.9658046 38.5314695,67.6523123 38.3933583,70.2390239 L38.3692223,70.6328854 C38.3464273,70.9296121 38.1694303,71.1757755 37.9213663,71.3008531 C37.7926413,71.3660532 37.6464847,71.3979879 37.4922828,71.387343 M33.3154224,83.7647051 C32.9212018,83.5424927 32.7844314,83.046174 33.0083594,82.6549738 C34.3371776,80.3330541 35.3374787,77.8394854 35.9824449,75.2461207 C36.0897158,74.8096796 36.53489,74.5448876 36.9747007,74.6513366 C37.4145114,74.7591163 37.6840295,75.2008798 37.5754177,75.6373209 C36.8942475,78.3757224 35.8362884,81.0063443 34.4323805,83.4586641 C34.3519274,83.6023703 34.2312476,83.7114805 34.0917955,83.782003 C33.8544586,83.9017582 33.5634863,83.9044194 33.3154224,83.7647051 M23.9681049,92.8887184 C23.7374725,92.5028406 23.8675384,92.0038607 24.2577363,91.7749953 C26.4675167,90.4803089 28.4895731,88.7398671 30.2742925,86.6002414 C30.5625831,86.2582738 31.0788242,86.2037187 31.4287955,86.4924617 C31.7787668,86.7798741 31.8270387,87.2921601 31.5387482,87.6381195 C29.6346898,89.922782 27.465136,91.7869708 25.0917675,93.1774614 C25.0783587,93.1867757 25.062268,93.1934288 25.0461774,93.2014124 C24.6640248,93.3943513 24.1893511,93.26129 23.9681049,92.8887184" id="Fill-159"></path>
                        <path d="M20.4186451,95.1905458 C20.761912,95.0175661 20.9456134,94.6223741 20.8356607,94.2418187 C20.7109583,93.8093695 20.2577388,93.5592143 19.8219508,93.6816307 C18.5628587,94.038235 17.2662218,94.2564555 15.9669031,94.3283086 C15.5136836,94.350929 15.166394,94.7368068 15.1932118,95.1838927 C15.2173477,95.6323093 15.6035229,95.9756075 16.0554016,95.9516564 C17.4780818,95.8744809 18.8953985,95.6376318 20.2724886,95.2490928 C20.3234422,95.2331254 20.373055,95.2144968 20.4186451,95.1905458" id="Fill-161"></path>
                    </g>
                    <g id="Group-166" transform="translate(146.000000, 14.000000)">
                        <mask id="mask-9" fill="white">
                            <use xlink:href="#path-8"></use>
                        </mask>
                        <g id="Clip-165"></g>
                        <polygon id="Fill-164" mask="url(#mask-9)" points="0.349530957 2.57359701 53.704169 20.8064866 25.5675914 3.9606 11.2035968 0.84200597"></polygon>
                    </g>
                    <g id="Group-171" transform="translate(144.000000, 18.000000)">
                        <polyline id="Fill-167" fill="#AFD8C7" points="55.2997125 17.3468445 2.35771121 3.42586376 1.68732264 0.0723157569"></polyline>
                        <polygon id="Fill-169" fill="#63C0C4" points="0.846799592 12.7171724 0.914906798 12.8305511 3.13573588 21.2369602 55.1656348 17.3506693"></polygon>
                    </g>
                    <g id="Group-174" transform="translate(134.000000, 20.000000)">
                        <mask id="mask-11" fill="white">
                            <use xlink:href="#path-10"></use>
                        </mask>
                        <g id="Clip-173"></g>
                        <polygon id="Fill-172" mask="url(#mask-11)" points="0.0860401955 6.11614763 15.6297393 13.7678066 64.7358365 15.1897268 7.68984248 0.105065059"></polygon>
                    </g>
                    <path d="M14.5391938,129.07792 C16.3363494,128.526885 18.1182395,127.8538 19.8321292,127.078 C20.2248667,126.901573 20.7036456,127.034498 20.9104225,127.375269 C21.1130362,127.716041 20.9603821,128.13536 20.5690324,128.314205 C18.7899177,129.119006 16.9386393,129.817467 15.06932,130.391462 C14.3934785,130.599309 13.7134737,130.791446 13.0293056,130.969083 C12.7781201,131.036754 12.5186081,130.989626 12.3229332,130.863951 C12.1897078,130.776945 12.0842376,130.653687 12.0342781,130.503844 C11.9066037,130.135279 12.1466871,129.748588 12.5699554,129.637414 C13.2291437,129.464611 13.8855565,129.277308 14.5391938,129.07792" id="Fill-175" fill="#63C0C4"></path>
                    <path d="M118.854634,18.0070728 C121.218841,18.3445814 123.680405,18.7755987 126.3801,19.3293465 C126.79058,19.41555 127.061602,19.8524117 126.987926,20.3111895 C126.911619,20.7670452 126.516927,21.0694879 126.105131,20.9862066 C123.433064,20.436842 120.997813,20.0102079 118.66255,19.6770826 C118.528355,19.6580886 118.408632,19.6011066 118.307327,19.5178253 C118.094193,19.3439573 117.970523,19.0488199 118.006045,18.7361497 C118.059987,18.2744497 118.438891,17.9471687 118.854634,18.0070728" id="Fill-177" fill="#63C0C4"></path>
                    <path d="M105.303709,18.5075129 C105.121243,18.356916 105.002641,18.11654 105.000034,17.8443071 C104.996124,17.3838279 105.329775,17.0073355 105.744232,17.0029914 C108.152775,16.9798226 110.69947,17.0913223 113.312635,17.3345943 C113.724486,17.3722435 114.034677,17.7762488 113.99688,18.2352799 C113.962994,18.6943111 113.599367,19.0360503 113.186213,18.996953 C110.619968,18.7580252 108.120192,18.6479735 105.757265,18.6711423 C105.587833,18.6725903 105.431434,18.6117723 105.303709,18.5075129" id="Fill-179" fill="#63C0C4"></path>
                    <path d="M29.6074914,120.209124 C29.9308534,119.930518 30.4493721,119.925498 30.7656115,120.222929 C31.0832755,120.507811 31.0775774,120.96588 30.7513665,121.244486 C28.7641863,122.95503 26.5846983,124.514976 24.2770052,125.877889 C23.9821333,126.052332 23.6017913,126.034762 23.3311359,125.857809 C23.2584863,125.81012 23.1915347,125.752391 23.1388281,125.679601 C22.8866913,125.348286 22.9878309,124.899001 23.3624749,124.678124 C25.587547,123.3629 27.6872628,121.859429 29.6074914,120.209124" id="Fill-181" fill="#63C0C4"></path>
                    <path d="M32.2897893,117.824024 C31.9507659,117.550928 31.9027261,117.060167 32.1799841,116.727585 C32.6260676,116.190857 33.0611706,115.643314 33.4811753,115.084954 C34.6039332,113.589687 35.6264938,112.016006 36.5172882,110.407174 C36.725918,110.028626 37.2063156,109.889374 37.5892611,110.094872 C37.9625986,110.299018 38.1149533,110.774907 37.9049509,111.152104 C36.9798424,112.824478 35.91885,114.458997 34.7507976,116.012398 C34.3156946,116.591037 33.8654934,117.15886 33.4015666,117.714515 C33.1339165,118.037634 32.6576366,118.093064 32.3199857,117.847008 C32.3103778,117.840248 32.2993973,117.832136 32.2897893,117.824024" id="Fill-183" fill="#63C0C4"></path>
                    <path d="M39.4863757,106.940864 C39.4249389,106.91504 39.3689631,106.88378 39.3170831,106.847083 C39.035839,106.637776 38.9184265,106.258575 39.0604138,105.920149 C39.9928881,103.661255 40.7751835,101.263729 41.4509885,98.5916559 C41.557479,98.1730403 41.9861714,97.9188807 42.4066723,98.0235347 C42.8244426,98.1295477 43.0824772,98.5563183 42.9759868,98.9735748 C42.2824334,101.7204 41.4755632,104.187243 40.5116879,106.515453 C40.3478564,106.91504 39.8877629,107.10532 39.4863757,106.940864" id="Fill-185" fill="#63C0C4"></path>
                    <path d="M59.82612,41.3081806 C59.1898006,42.1101793 58.5707508,42.9286294 57.9729559,43.7621597 C57.0709499,45.0193099 56.2087968,46.3203301 55.4130654,47.629576 C55.1885602,47.9997293 54.7156381,48.1107752 54.3582896,47.8790867 C54.3410199,47.8681192 54.3250787,47.8571517 54.3078091,47.8448133 C53.991642,47.6021572 53.902637,47.142893 54.1178432,46.7919328 C54.9335011,45.4470426 55.8169091,44.1117489 56.7428269,42.8216962 C57.3552345,41.9676018 57.9888971,41.1285877 58.6438146,40.3073958 C58.9121581,39.970145 59.3691391,39.8769212 59.7211738,40.1977207 C60.0466399,40.4746502 60.0944635,40.9709298 59.82612,41.3081806" id="Fill-187" fill="#63C0C4"></path>
                    <path d="M52.9060838,51.1822027 C51.636682,53.5454209 50.527398,55.9969445 49.6128517,58.4666898 C49.4570615,58.8871913 48.9810359,59.1030487 48.5497278,58.9516682 C48.4718327,58.9250364 48.3997076,58.888593 48.3362375,58.8423378 C48.0491796,58.6348904 47.9222394,58.2620458 48.0491796,57.9200379 C48.9896909,55.3816107 50.1278249,52.8628069 51.4332893,50.4337101 C51.645337,50.0384387 52.1473277,49.8856565 52.5541133,50.0917022 C52.9551289,50.2935429 53.1195741,50.7855296 52.9060838,51.1822027" id="Fill-189" fill="#63C0C4"></path>
                    <path d="M67.7265222,32.4119565 C65.8163954,34.0733914 63.9883545,35.8687907 62.2932147,37.7525788 C62.0300185,38.0467481 61.6039534,38.0798939 61.3042746,37.845111 C61.2782155,37.8243948 61.2547624,37.8022976 61.2313093,37.7788193 C60.9329334,37.4763636 60.9212069,36.9736518 61.2078562,36.6546231 C62.9446904,34.7252594 64.8183346,32.8842846 66.7727617,31.1814175 C67.0932878,30.9038211 67.5662592,30.9480156 67.8294553,31.2919036 C68.0926515,31.6316484 68.0457453,32.1329791 67.7265222,32.4119565" id="Fill-191" fill="#63C0C4"></path>
                    <path d="M82.1108227,23.9366526 C81.8416746,24.0474805 81.5409427,24.0079901 81.3198567,23.856398 C81.21412,23.7825128 81.1262348,23.6831499 81.0685602,23.5634049 C80.8900436,23.1927049 81.0726799,22.7583108 81.4709093,22.5952538 C83.9220799,21.5888862 86.45015,20.7264674 88.9837129,20.0296534 C89.4052868,19.9162778 89.8433392,20.1379334 89.9669276,20.5251939 C90.0918892,20.9137282 89.8515784,21.3213708 89.4341241,21.4372941 C86.9637286,22.1162738 84.5001991,22.9570366 82.1108227,23.9366526" id="Fill-193" fill="#63C0C4"></path>
                    <path d="M44.556958,82.995085 C44.4425083,82.978061 44.3400486,82.9282985 44.2539388,82.8510357 C44.0806292,82.6965101 43.9770795,82.4359119 44.0043294,82.1595992 L44.0937092,81.2101836 C44.3018987,79.0245632 44.5089981,76.8350143 44.7498875,74.6559417 C44.7956674,74.2421274 45.1117666,73.9527193 45.4540257,74.0064104 C45.7984648,74.0640301 46.0393542,74.4398678 45.9946643,74.853682 C45.7548649,77.0248974 45.5488554,79.2039701 45.341756,81.3817331 L45.2512862,82.3298393 C45.2131363,82.7449631 44.9013971,83.0422284 44.556958,82.995085" id="Fill-195" fill="#63C0C4"></path>
                    <path d="M72.2007149,29.8486392 C71.9256938,30.059831 71.5660509,30.0440275 71.3082186,29.8385824 C71.2447522,29.786862 71.1878969,29.7250848 71.1389749,29.6489408 C70.8970092,29.276841 70.9789867,28.7596365 71.322763,28.4967243 C73.4224432,26.8862071 75.6292229,25.4078644 77.8783135,24.0976131 C78.2511786,23.8821113 78.7086656,24.0358359 78.9096426,24.4366694 C79.1079751,24.8389395 78.9691423,25.3417772 78.5975994,25.557279 C76.4027197,26.83305 74.2501508,28.278349 72.2007149,29.8486392" id="Fill-197" fill="#63C0C4"></path>
                    <path d="M44.2522265,86.0058179 C44.7243411,86.0610227 45.0524458,86.4356262 44.9930604,86.8522904 C44.5729081,89.8004858 44.160179,92.1940051 43.6969723,94.3837926 C43.6078941,94.7938849 43.162503,95.0633365 42.6978116,94.9871014 C42.5656789,94.9634423 42.4469079,94.9174383 42.3459526,94.850404 C42.0905951,94.6847898 41.9525238,94.398251 42.0148786,94.1025114 C42.4721468,91.9455838 42.8804219,89.5809813 43.2976049,86.6630171 C43.3555058,86.2476672 43.7845659,85.9545564 44.2522265,86.0058179" id="Fill-199" fill="#63C0C4"></path>
                    <g id="Group-203" transform="translate(0.000000, 131.000000)">
                        <mask id="mask-13" fill="white">
                            <use xlink:href="#path-12"></use>
                        </mask>
                        <g id="Clip-202"></g>
                        <path d="M8.57568598,0.331190638 C9.00779096,0.251871325 9.4301701,0.515835595 9.51492381,0.921534374 C9.59967752,1.32723315 9.31762829,1.72122908 8.88413391,1.80054839 C6.3887624,2.26086047 3.76278681,2.57943804 0.85754081,2.77058458 C0.65746648,2.78358774 0.472675605,2.72897445 0.324009263,2.62494912 C0.143386603,2.50011872 0.019729552,2.30377092 0.00166728609,2.07621551 C-0.0288996255,1.66401515 0.303168187,1.30642809 0.743609594,1.27652081 C3.58216416,1.08927521 6.14422711,0.778499548 8.57568598,0.331190638" id="Fill-201" fill="#63C0C4" mask="url(#mask-13)"></path>
                    </g>
                    <path d="M47.4555024,62.0265316 C47.8457654,62.1379888 48.0804333,62.5546267 47.9745777,62.9633034 C47.3955601,65.2110249 46.8994415,67.6312399 46.4594391,70.3619429 C46.3931199,70.7785808 46.0130599,71.0585508 45.6138694,70.9895535 C45.4952601,70.9683235 45.388129,70.9205561 45.2975778,70.848905 C45.0833158,70.6843729 44.9621558,70.4017491 45.0106198,70.1085103 C45.456999,67.3300399 45.9633205,64.8620575 46.5563672,62.5678954 C46.6609475,62.1592188 47.0639641,61.9164012 47.4555024,62.0265316" id="Fill-204" fill="#63C0C4"></path>
                    <path d="M98.5333564,17.3029333 C99.4174889,17.1802558 100.301621,17.0805803 101.187068,17.0023734 C101.600889,16.9671036 101.967416,17.3290022 101.997632,17.8166454 C102.030475,18.302755 101.71781,18.7275259 101.301361,18.7643291 C100.436934,18.8394691 99.5751351,18.9376111 98.7120221,19.0572217 C97.1132268,19.2780412 95.4986668,19.5893354 93.9130087,19.98037 C93.692304,20.0355749 93.472913,19.9711692 93.3060708,19.8270231 C93.1628755,19.7028121 93.0564643,19.5187958 93.0170527,19.3010433 C92.9290336,18.822601 93.1904635,18.3533595 93.6003437,18.253684 C95.2293546,17.8488482 96.8898946,17.5314201 98.5333564,17.3029333" id="Fill-206" fill="#63C0C4"></path>
                </g>
            </g>
        </g>
    </g>
</svg>